<svg xmlns="http://www.w3.org/2000/svg" viewBox="-12 -12 577.6 81" width="577.6" height="81" role="img" aria-label="Baumpflege Happe"><title>Baumpflege Happe</title><g transform="translate(0.00 -9.13) scale(0.54015)"><g fill="none" stroke-linecap="round" stroke-linejoin="round" stroke-width="7"><path d="M60 8 C86 24 98 54 84 80 C77 92 68 98 60 99 C52 98 43 92 36 80 C22 54 34 24 60 8 Z" stroke="#6F8A5E"/><g stroke="#1F3D2B"><path d="M60 126 V24"/><path d="M60 86 C53 80 47 74 43 66"/><path d="M60 72 C67 66 72 60 76 52"/><path d="M60 58 C54 52 51 46 49 38"/><path d="M60 46 C64 42 67 37 69 31"/><path d="M47 126 H73"/></g></g></g><path d="M114.4 33Q114.4 37.6 110.7 40.5Q106.9 43.4 99.6 43.4H79.6Q79 43.4 78.6 43.1Q78.3 42.8 78.3 42.3Q78.3 41.4 79.3 41L81.2 40.6Q82 40.4 82.3 40Q82.7 39.6 82.7 38.8V4.4Q82.7 3.7 82.4 3.4Q82.1 3 81.3 2.8L79.3 2.4Q78.3 2 78.3 1.1Q78.3 0.6 78.6 0.3Q79 0 79.6 0H94.7Q100.2 0 104.1 1.6Q108 3.2 110 6Q112.1 8.7 112.1 12.5Q112.1 15.5 110.5 17.9Q108.8 20.3 105.7 21.7Q102.5 23.1 97.9 23.1L99.4 22.4Q104.1 22.4 107.4 23.7Q110.8 25.1 112.6 27.5Q114.4 29.9 114.4 33ZM96.4 24.1H89V21.7H96.1Q98.8 21.7 100.6 20.7Q102.5 19.6 103.5 17.6Q104.4 15.6 104.4 12.7Q104.4 9.6 103.2 7.3Q101.9 5 99.5 3.7Q97.2 2.4 93.9 2.4H90.9V38.6Q90.9 39.8 91.6 40.4Q92.3 41 93.7 41H97.7Q100.4 41 102.4 40Q104.3 38.9 105.3 37.1Q106.3 35.2 106.3 32.7Q106.3 28.8 103.8 26.4Q101.2 24.1 96.4 24.1ZM133.7 40V39.4L133.2 39.4V21.8Q133.2 19.6 132.2 18.4Q131.2 17.3 129.4 17.3Q127.5 17.3 126.6 18.1Q125.6 19 125.6 20.1V22.1Q125.6 23.7 124.6 24.7Q123.6 25.7 121.8 25.7Q120.3 25.7 119.5 24.9Q118.7 24.1 118.7 22.6Q118.7 20.8 120 19.2Q121.4 17.6 124 16.5Q126.6 15.5 130.5 15.5Q135.5 15.5 138 17.6Q140.4 19.7 140.4 23.6V38.7Q140.4 39.6 140.8 40Q141.1 40.5 141.8 40.5Q142.2 40.5 142.6 40.3Q142.9 40 143.1 39.5Q143.2 39.4 143.3 39.3Q143.4 39.2 143.5 39.2Q143.8 39.2 144 39.4Q144.1 39.7 144.1 40.1Q144.1 40.9 143.5 41.8Q142.9 42.7 141.7 43.4Q140.6 44 138.7 44Q136.3 44 135 42.9Q133.7 41.8 133.7 40ZM117.4 37.3Q117.4 33.7 120.3 31.5Q123.3 29.4 129 29.4Q130.7 29.4 132.1 29.7Q133.5 30 134.5 30.5L134 31.9Q133 31.5 131.9 31.2Q130.9 30.9 129.6 30.9Q127.3 30.9 125.9 32.3Q124.6 33.6 124.6 36.1Q124.6 38.3 125.8 39.6Q127 40.8 128.9 40.8Q130.4 40.8 131.8 40.1Q133.1 39.4 134 38.2L134.6 39.5Q133.2 41.7 130.7 42.8Q128.2 44 125.3 44Q121.7 44 119.5 42.1Q117.4 40.3 117.4 37.3ZM165.7 41V38.2L165.5 38V21.4Q165.5 20.8 165.4 20.5Q165.2 20.3 164.8 20.2L163.1 20.1Q162.7 20 162.5 19.8Q162.3 19.6 162.3 19.2Q162.3 18.8 162.6 18.6Q162.8 18.3 163.4 18.1L169.8 16.1Q170.5 15.8 170.9 15.7Q171.3 15.7 171.7 15.7Q172.2 15.7 172.5 16Q172.8 16.3 172.8 16.8V39.4Q172.8 40.2 173 40.6Q173.3 41 173.7 41.1L175 41.4Q175.4 41.6 175.6 41.8Q175.8 42.1 175.8 42.4Q175.8 42.9 175.5 43.2Q175.2 43.4 174.7 43.4H168Q166.9 43.4 166.3 42.7Q165.7 42.1 165.7 41ZM148.1 35.8V21.4Q148.1 20.8 147.9 20.5Q147.7 20.3 147.3 20.2L145.6 20.1Q145.2 20 145 19.8Q144.9 19.6 144.9 19.2Q144.9 18.8 145.1 18.6Q145.4 18.3 145.9 18.1L152.3 16.1Q153.1 15.8 153.5 15.7Q153.9 15.7 154.3 15.7Q154.8 15.7 155.1 16Q155.3 16.3 155.3 16.8V34.5Q155.3 37.1 156.5 38.4Q157.7 39.7 159.7 39.7Q161 39.7 162.4 39.1Q163.8 38.4 165.3 37.1L166.3 36.1L167.3 37.3L166.1 38.4Q162.9 41.4 160.3 42.7Q157.7 44 155.4 44Q152.1 44 150.1 41.9Q148.1 39.8 148.1 35.8ZM187.9 16.8V39.4Q187.9 40.2 188.1 40.6Q188.3 41 188.8 41.2L190.1 41.5Q190.7 41.8 190.7 42.4Q190.7 43.4 189.7 43.4H178.7Q178.2 43.4 177.9 43.2Q177.6 42.9 177.6 42.4Q177.6 42.1 177.8 41.8Q177.9 41.6 178.3 41.4L179.7 41.1Q180.2 41 180.4 40.6Q180.6 40.2 180.6 39.4V21.4Q180.6 20.8 180.4 20.5Q180.3 20.2 179.9 20.1L178.2 20.1Q177.8 20 177.6 19.7Q177.4 19.5 177.4 19.2Q177.4 18.8 177.6 18.6Q177.9 18.3 178.4 18.1L184.9 16.1Q185.6 15.8 186 15.7Q186.4 15.6 186.8 15.6Q187.3 15.6 187.6 15.9Q187.9 16.3 187.9 16.8ZM187.1 23.4 186.1 22.3 187.3 21.1Q190.5 18 193.1 16.8Q195.7 15.5 198.1 15.5Q201.3 15.5 203.4 17.6Q205.4 19.7 205.4 23.7V39.3Q205.4 40.2 205.6 40.6Q205.9 41 206.4 41.2L207.6 41.5Q208.3 41.8 208.3 42.4Q208.3 43.4 207.3 43.4H196.2Q195.2 43.4 195.2 42.4Q195.2 41.8 195.9 41.5L197.2 41.2Q197.8 41 198 40.6Q198.2 40.2 198.2 39.3V25Q198.2 22.4 197 21.1Q195.8 19.8 193.8 19.8Q192.4 19.8 191 20.4Q189.6 21 188.1 22.4ZM204.5 23.4 203.5 22.3 204.7 21.1Q207.9 18 210.5 16.8Q213.2 15.5 215.5 15.5Q218.8 15.5 220.8 17.6Q222.8 19.7 222.8 23.7V39.3Q222.8 40.2 223.1 40.6Q223.3 41 223.9 41.1L225.1 41.4Q225.4 41.6 225.6 41.8Q225.8 42.1 225.8 42.4Q225.8 42.9 225.5 43.2Q225.2 43.4 224.7 43.4H213.6Q212.6 43.4 212.6 42.4Q212.6 41.8 213.3 41.5L214.6 41.2Q215.2 41 215.4 40.6Q215.6 40.2 215.6 39.3V25Q215.6 22.4 214.4 21.1Q213.2 19.8 211.2 19.8Q209.9 19.8 208.5 20.4Q207 21 205.6 22.4ZM237 16.7V20.4L237.1 20.9V53.9Q237.1 54.7 237.4 55.1Q237.6 55.5 238.1 55.6L239.8 55.9Q240.2 56.1 240.3 56.3Q240.5 56.6 240.5 56.9Q240.5 57.4 240.2 57.6Q240 57.9 239.4 57.9H228.1Q227.6 57.9 227.3 57.7Q227 57.4 227 56.9Q227 56.6 227.2 56.3Q227.4 56.1 227.8 55.9L229 55.6Q229.5 55.5 229.7 55.1Q229.9 54.7 229.9 53.9V21.3Q229.9 20.7 229.7 20.4Q229.6 20.1 229.1 20.1L227.4 20Q227 19.9 226.9 19.6Q226.7 19.4 226.7 19.1Q226.7 18.7 226.9 18.5Q227.2 18.2 227.7 18L233.9 16Q234.7 15.7 235.1 15.6Q235.5 15.5 235.9 15.5Q236.4 15.5 236.7 15.8Q237 16.2 237 16.7ZM236.1 23.2 235.2 22Q237.3 18.8 240 17.2Q242.6 15.5 245.8 15.5Q249.1 15.5 251.6 17.1Q254.2 18.8 255.6 21.8Q257 24.9 257 29Q257 33.8 255.3 37.2Q253.6 40.5 250.7 42.3Q247.8 44.1 244.1 44.1Q240.9 44.1 238.7 42.7Q236.4 41.3 234.9 38.6L236.2 37Q237.3 39.2 238.9 40.3Q240.6 41.4 242.5 41.4Q244.5 41.4 246.1 40.2Q247.7 39 248.6 36.5Q249.6 33.9 249.6 29.9Q249.6 26 248.7 23.5Q247.8 21 246.3 19.8Q244.8 18.6 242.9 18.6Q241 18.6 239.3 19.8Q237.5 20.9 236.1 23.2ZM270.6 39.4Q270.6 40.1 270.8 40.5Q271.1 41 271.7 41L274.7 41.4Q275.3 41.4 275.5 41.7Q275.8 42 275.8 42.4Q275.8 43.4 274.7 43.4H260.8Q260.3 43.4 260 43.2Q259.7 42.9 259.7 42.5Q259.7 42 259.9 41.8Q260.1 41.5 260.6 41.4L262.3 41Q262.8 40.9 263.1 40.5Q263.4 40.1 263.4 39.5V20.2Q263.4 19.6 263.2 19.3Q263 19 262.3 18.8L260.1 18.3Q259.5 18 259.3 17.7Q259 17.5 259 17Q259 16.7 259.3 16.4Q259.6 16.2 260 16.2H264.7L263.5 17V16.2Q263.5 15.2 263 14.3Q262.6 13.3 262 12.3Q261.4 11.2 260.9 10Q260.5 8.7 260.5 7Q260.5 3.4 262.9 1.2Q265.3 -1 269.5 -1Q272.1 -1 273.9 -0.1Q275.6 0.7 276.5 2.2Q277.4 3.6 277.4 5.3Q277.4 7.1 276.5 8Q275.6 8.9 274.3 8.9Q272.8 8.9 271.9 7.9Q270.9 6.9 270.9 5.2V3.3Q270.9 2.1 270.3 1.4Q269.8 0.8 268.6 0.8Q266.9 0.8 266 1.9Q265 3 265 4.9Q265 6.3 265.6 7.5Q266.1 8.7 266.9 9.9Q267.7 11 268.4 12.1Q269.2 13.1 269.7 14.2Q270.3 15.3 270.3 16.3V17.3L269.4 16.2H275.4Q276 16.2 276.3 16.4Q276.6 16.6 276.6 17Q276.6 17.7 276 18.1Q275.5 18.5 274.3 18.5H270.6ZM288.5 -1.3V39.4Q288.5 40.2 288.7 40.6Q288.9 41 289.4 41.1L290.7 41.4Q291.1 41.6 291.3 41.8Q291.5 42.1 291.5 42.4Q291.5 42.9 291.2 43.2Q290.9 43.4 290.4 43.4H279.3Q278.8 43.4 278.5 43.2Q278.2 42.9 278.2 42.4Q278.2 42.1 278.4 41.8Q278.6 41.6 279 41.4L280.3 41.1Q280.8 41 281 40.6Q281.3 40.2 281.3 39.4V3.2Q281.3 2.6 281.1 2.4Q280.9 2.1 280.5 2L278.8 2Q278.4 1.8 278.2 1.6Q278.1 1.4 278.1 1Q278.1 0.7 278.3 0.4Q278.5 0.2 279.1 -0.1L285.5 -2.1Q286.3 -2.4 286.7 -2.4Q287.1 -2.5 287.4 -2.5Q288 -2.5 288.2 -2.2Q288.5 -1.9 288.5 -1.3ZM318.3 26.5Q318.3 27.7 317.7 28.3Q317.1 29 315.9 29H298.1V27.2H309.8Q311 27.2 311 26Q311 21.9 309.6 19.8Q308.1 17.7 305.9 17.7Q304.1 17.7 302.8 18.8Q301.4 20 300.7 22.1Q299.9 24.3 299.9 27.5Q299.9 33.3 302.5 36.3Q305 39.3 309.2 39.3Q312 39.3 314.1 37.8Q316.1 36.4 316.8 34.1Q317 33.7 317.3 33.6Q317.5 33.4 317.7 33.4Q317.9 33.4 318.1 33.7Q318.3 33.9 318.3 34.4Q318.1 37 316.6 39.2Q315.1 41.4 312.4 42.7Q309.8 44 306.5 44Q302.5 44 299.5 42.3Q296.5 40.6 294.9 37.4Q293.2 34.3 293.2 30.2Q293.2 25.9 294.9 22.6Q296.5 19.3 299.6 17.4Q302.7 15.5 306.9 15.5Q310.4 15.5 312.9 16.9Q315.5 18.4 316.9 20.8Q318.3 23.3 318.3 26.5ZM338.1 41.6Q334.7 40.9 333.1 40.4Q331.4 39.8 330.8 39.3Q330.3 38.8 330.3 38.2Q330.3 37.6 330.7 37.2Q331.1 36.7 331.9 36.4L331.6 35.9Q328.9 36.2 327.2 37Q325.6 37.8 324.9 38.9Q324.1 40 324.1 41.3Q324.1 42.7 325 43.7Q325.8 44.8 328 45.7Q330.2 46.5 334.1 47.3Q337.5 47.9 339.4 48.6Q341.2 49.3 341.9 50.2Q342.6 51 342.6 52.2Q342.6 53.5 341.7 54.4Q340.9 55.4 339.1 55.9Q337.4 56.4 334.6 56.4Q329.7 56.4 327.6 54.7Q325.5 53 325.5 50.3Q325.5 48.9 326.5 47.7Q327.6 46.6 329.9 45.9L329.3 45.3Q324.4 46 322.2 47.7Q320 49.5 320 52Q320 53.9 321.4 55.4Q322.9 56.9 325.9 57.8Q329 58.7 333.9 58.7Q341.2 58.7 344.9 56.2Q348.7 53.7 348.7 49.6Q348.7 47.4 347.7 45.9Q346.7 44.4 344.4 43.4Q342.1 42.3 338.1 41.6ZM338.5 17.6 339.9 17.9Q340.7 16.4 341.4 15.7Q342.1 15 342.9 15Q343.5 15 344 15.4Q344.4 15.9 344.9 16.4Q345.3 17 345.9 17.4Q346.5 17.9 347.3 17.9Q348.6 17.9 349.4 17Q350.1 16.1 350.1 14.6Q350.1 12.9 349 11.8Q347.9 10.8 346.1 10.8Q343.8 10.8 342.2 12.2Q340.5 13.6 339.2 16.3ZM346.5 26Q346.5 23.1 345 20.7Q343.5 18.3 340.7 16.9Q338 15.5 334.1 15.5Q330.1 15.5 327.2 16.9Q324.2 18.3 322.6 20.8Q321 23.3 321 26.6Q321 29.5 322.6 31.8Q324.2 34.1 327 35.5Q329.9 36.9 333.9 36.9Q337.5 36.9 340.4 35.5Q343.2 34.1 344.9 31.6Q346.5 29.2 346.5 26ZM332.7 17.4Q335.2 17.3 336.9 19.6Q338.7 21.9 339.1 26.1Q339.5 30.1 338.3 32.4Q337 34.8 334.7 34.9Q333.1 34.9 331.8 33.9Q330.4 32.9 329.5 30.9Q328.6 29 328.3 26.2Q328.1 23.5 328.6 21.6Q329.1 19.7 330.1 18.6Q331.2 17.5 332.7 17.4ZM375.4 26.5Q375.4 27.7 374.8 28.3Q374.1 29 372.9 29H355.2V27.2H366.9Q368.1 27.2 368.1 26Q368.1 21.9 366.6 19.8Q365.2 17.7 363 17.7Q361.2 17.7 359.9 18.8Q358.5 20 357.8 22.1Q357 24.3 357 27.5Q357 33.3 359.6 36.3Q362.1 39.3 366.3 39.3Q369.1 39.3 371.1 37.8Q373.2 36.4 373.9 34.1Q374.1 33.7 374.3 33.6Q374.5 33.4 374.7 33.4Q375 33.4 375.2 33.7Q375.4 33.9 375.3 34.4Q375.2 37 373.7 39.2Q372.1 41.4 369.5 42.7Q366.9 44 363.5 44Q359.6 44 356.6 42.3Q353.6 40.6 352 37.4Q350.3 34.3 350.3 30.2Q350.3 25.9 351.9 22.6Q353.6 19.3 356.7 17.4Q359.7 15.5 364 15.5Q367.4 15.5 370 16.9Q372.6 18.4 374 20.8Q375.4 23.3 375.4 26.5ZM397 21.7H422.2V24.2H397ZM401.4 39Q401.4 39.6 401.8 40Q402.1 40.4 402.8 40.6L404.8 41Q405.8 41.4 405.8 42.3Q405.8 42.8 405.5 43.1Q405.2 43.4 404.5 43.4H390.1Q389.4 43.4 389.1 43.1Q388.7 42.8 388.7 42.3Q388.7 41.4 389.7 41L391.7 40.6Q392.5 40.4 392.8 40Q393.1 39.6 393.1 39V4.4Q393.1 3.7 392.8 3.4Q392.5 3 391.8 2.8L389.7 2.4Q388.7 2 388.7 1.1Q388.7 0.6 389.1 0.3Q389.4 0 390.1 0H404.5Q405.2 0 405.5 0.3Q405.8 0.6 405.8 1.1Q405.8 2 404.8 2.4L402.8 2.8Q402.1 3 401.7 3.4Q401.4 3.7 401.4 4.4ZM427.1 39Q427.1 39.6 427.4 40Q427.8 40.4 428.5 40.6L430.5 41Q431.5 41.4 431.5 42.3Q431.5 42.8 431.2 43.1Q430.8 43.4 430.2 43.4H415.7Q415.1 43.4 414.7 43.1Q414.4 42.8 414.4 42.3Q414.4 41.4 415.4 41L417.4 40.6Q418.1 40.4 418.5 40Q418.8 39.6 418.8 39V4.4Q418.8 3.7 418.5 3.4Q418.2 3 417.4 2.8L415.4 2.4Q414.4 2 414.4 1.1Q414.4 0.6 414.7 0.3Q415.1 0 415.7 0H430.2Q430.8 0 431.2 0.3Q431.5 0.6 431.5 1.1Q431.5 2 430.5 2.4L428.4 2.8Q427.7 3 427.4 3.4Q427.1 3.7 427.1 4.4ZM451.2 40V39.4L450.7 39.4V21.8Q450.7 19.6 449.7 18.4Q448.7 17.3 446.9 17.3Q445.1 17.3 444.1 18.1Q443.1 19 443.1 20.1V22.1Q443.1 23.7 442.1 24.7Q441.1 25.7 439.3 25.7Q437.8 25.7 437 24.9Q436.2 24.1 436.2 22.6Q436.2 20.8 437.5 19.2Q438.9 17.6 441.5 16.5Q444.2 15.5 448 15.5Q453 15.5 455.5 17.6Q458 19.7 458 23.6V38.7Q458 39.6 458.3 40Q458.6 40.5 459.3 40.5Q459.8 40.5 460.1 40.3Q460.4 40 460.6 39.5Q460.7 39.4 460.8 39.3Q460.9 39.2 461.1 39.2Q461.3 39.2 461.5 39.4Q461.6 39.7 461.6 40.1Q461.6 40.9 461.1 41.8Q460.5 42.7 459.3 43.4Q458.1 44 456.3 44Q453.9 44 452.5 42.9Q451.2 41.8 451.2 40ZM434.9 37.3Q434.9 33.7 437.9 31.5Q440.8 29.4 446.5 29.4Q448.3 29.4 449.6 29.7Q451 30 452 30.5L451.6 31.9Q450.6 31.5 449.5 31.2Q448.4 30.9 447.1 30.9Q444.8 30.9 443.5 32.3Q442.2 33.6 442.2 36.1Q442.2 38.3 443.3 39.6Q444.5 40.8 446.5 40.8Q447.9 40.8 449.3 40.1Q450.7 39.4 451.6 38.2L452.1 39.5Q450.7 41.7 448.2 42.8Q445.7 44 442.9 44Q439.2 44 437.1 42.1Q434.9 40.3 434.9 37.3ZM472.7 16.7V20.4L472.8 20.9V53.9Q472.8 54.7 473 55.1Q473.2 55.5 473.7 55.6L475.4 55.9Q475.8 56.1 476 56.3Q476.2 56.6 476.2 56.9Q476.2 57.4 475.9 57.6Q475.6 57.9 475.1 57.9H463.7Q463.2 57.9 463 57.7Q462.7 57.4 462.7 56.9Q462.7 56.6 462.9 56.3Q463.1 56.1 463.4 55.9L464.6 55.6Q465.1 55.5 465.3 55.1Q465.6 54.7 465.6 53.9V21.3Q465.6 20.7 465.4 20.4Q465.2 20.1 464.8 20.1L463.1 20Q462.7 19.9 462.5 19.6Q462.4 19.4 462.4 19.1Q462.4 18.7 462.6 18.5Q462.8 18.2 463.4 18L469.6 16Q470.3 15.7 470.8 15.6Q471.2 15.5 471.5 15.5Q472.1 15.5 472.4 15.8Q472.7 16.2 472.7 16.7ZM471.7 23.2 470.9 22Q473 18.8 475.6 17.2Q478.2 15.5 481.5 15.5Q484.8 15.5 487.3 17.1Q489.8 18.8 491.3 21.8Q492.7 24.9 492.7 29Q492.7 33.8 491 37.2Q489.3 40.5 486.4 42.3Q483.5 44.1 479.8 44.1Q476.6 44.1 474.3 42.7Q472 41.3 470.5 38.6L471.8 37Q473 39.2 474.6 40.3Q476.2 41.4 478.2 41.4Q480.2 41.4 481.8 40.2Q483.4 39 484.3 36.5Q485.2 33.9 485.2 29.9Q485.2 26 484.4 23.5Q483.5 21 482 19.8Q480.5 18.6 478.5 18.6Q476.7 18.6 474.9 19.8Q473.2 20.9 471.7 23.2ZM504.8 16.7V20.4L505 20.9V53.9Q505 54.7 505.2 55.1Q505.4 55.5 505.9 55.6L507.6 55.9Q508 56.1 508.1 56.3Q508.3 56.6 508.3 56.9Q508.3 57.4 508.1 57.6Q507.8 57.9 507.3 57.9H495.9Q495.4 57.9 495.1 57.7Q494.8 57.4 494.8 56.9Q494.8 56.6 495 56.3Q495.2 56.1 495.6 55.9L496.8 55.6Q497.3 55.5 497.5 55.1Q497.7 54.7 497.7 53.9V21.3Q497.7 20.7 497.5 20.4Q497.4 20.1 497 20.1L495.3 20Q494.9 19.9 494.7 19.6Q494.5 19.4 494.5 19.1Q494.5 18.7 494.7 18.5Q495 18.2 495.5 18L501.7 16Q502.5 15.7 502.9 15.6Q503.3 15.5 503.7 15.5Q504.2 15.5 504.5 15.8Q504.8 16.2 504.8 16.7ZM503.9 23.2 503 22Q505.1 18.8 507.8 17.2Q510.4 15.5 513.6 15.5Q516.9 15.5 519.4 17.1Q522 18.8 523.4 21.8Q524.8 24.9 524.8 29Q524.8 33.8 523.1 37.2Q521.4 40.5 518.5 42.3Q515.6 44.1 511.9 44.1Q508.7 44.1 506.5 42.7Q504.2 41.3 502.7 38.6L504 37Q505.1 39.2 506.8 40.3Q508.4 41.4 510.4 41.4Q512.3 41.4 513.9 40.2Q515.5 39 516.5 36.5Q517.4 33.9 517.4 29.9Q517.4 26 516.5 23.5Q515.7 21 514.1 19.8Q512.6 18.6 510.7 18.6Q508.8 18.6 507.1 19.8Q505.3 20.9 503.9 23.2ZM552.4 26.5Q552.4 27.7 551.8 28.3Q551.1 29 549.9 29H532.2V27.2H543.9Q545 27.2 545 26Q545 21.9 543.6 19.8Q542.2 17.7 540 17.7Q538.2 17.7 536.8 18.8Q535.5 20 534.7 22.1Q534 24.3 534 27.5Q534 33.3 536.5 36.3Q539.1 39.3 543.2 39.3Q546.1 39.3 548.1 37.8Q550.2 36.4 550.8 34.1Q551.1 33.7 551.3 33.6Q551.5 33.4 551.7 33.4Q552 33.4 552.2 33.7Q552.4 33.9 552.3 34.4Q552.2 37 550.6 39.2Q549.1 41.4 546.5 42.7Q543.9 44 540.5 44Q536.5 44 533.6 42.3Q530.6 40.6 528.9 37.4Q527.3 34.3 527.3 30.2Q527.3 25.9 528.9 22.6Q530.6 19.3 533.6 17.4Q536.7 15.5 540.9 15.5Q544.4 15.5 547 16.9Q549.6 18.4 551 20.8Q552.4 23.3 552.4 26.5Z" fill="#1F3D2B"/></svg>
